<svg width="120" height="120" viewBox="0 0 120 120" xmlns="http://www.w3.org/2000/svg" xmlns:xlink="http://www.w3.org/1999/xlink">
    <defs>
        <path id="a" d="M0 0h120v120H0z"/>
        <path id="c" d="M0 0h78v72H0z"/>
    </defs>
    <g fill="none" fill-rule="evenodd">
        <mask id="b" fill="#fff">
            <use xlink:href="#a"/>
        </mask>
        <g mask="url(#b)">
            <g transform="translate(-20.64 -10.64)">
                <path d="M88.64 80.14c0 17.396-14.104 31.5-31.5 31.5-17.397 0-31.5-14.104-31.5-31.5 0-17.398 14.103-31.5 31.5-31.5 17.396 0 31.5 14.102 31.5 31.5" fill="#EEEEEC"/>
                <path d="M119.65 47.457a2.095 2.095 0 0 0-.01.169c-.018 1.094.879 1.995 2.004 2.013h3.854c1.083.014 2.002-.77 2.131-1.816.006-.056.01-.114.01-.17.018-1.094-.877-1.996-2.003-2.013h-3.855c-1.084-.016-2.003.769-2.13 1.817M112.379 34.65c.056-.006.11-.01.167-.01h10.063c1.03-.013 1.902.77 2.02 1.818.11 1.087-.665 2.06-1.729 2.171-.056.007-.11.01-.165.01h-10.058c-1.031.016-1.906-.768-2.027-1.815-.109-1.09.665-2.061 1.729-2.173" fill="#F0F0F0"/>
                <path fill="#FFF" d="M72.338 83.186 100.64 58.63 127.16 82l.48 35.93H70.728z"/>
                <path fill="#BABABA" d="M64.75 80.633 100.9 49.64l36.152 30.993 1.587 4.984-2.909 2.023-5.633-3.01L100.9 59 70.08 84.63l-3.01 3.01-3.43-3.01v-3.043z"/>
                <g transform="translate(61.64 47.64)">
                    <mask id="d" fill="#fff">
                        <use xlink:href="#c"/>
                    </mask>
                    <path d="M74.399 36.837c-.626.831-1.713.991-2.52.249L40.028 9.073a1.555 1.555 0 0 0-2.056 0L6.096 37.11c-.362.334-.811.496-1.26.455-.474-.043-.911-.302-1.233-.728-.718-.954-.605-2.426.221-3.189L37.878 3.603c.327-.302.72-.455 1.115-.455.403 0 .81.158 1.157.477l34.002 30c.852.786.965 2.258.247 3.212zM64.74 68.87h-53.04V36.342l27.3-24.011 25.74 22.639v33.9zM62.4 18.792V9.39h3.12v12.453l-3.148-2.777a1.51 1.51 0 0 0 .028-.273zm13.838 12.506-7.87-6.943c.171-.25.272-.554.272-.881V7.824c0-.864-.699-1.564-1.56-1.564h-6.24c-.861 0-1.56.7-1.56 1.564v8.512L42.235 1.298c-1.874-1.728-4.594-1.727-6.443-.023L1.74 31.32c-2.05 1.892-2.325 5.144-.625 7.402.858 1.14 2.08 1.836 3.44 1.959a4.691 4.691 0 0 0 3.625-1.243l.402-.353v31.35c0 .864.698 1.564 1.56 1.564h56.16c.862 0 1.56-.7 1.56-1.565V37.714l1.934 1.7a4.77 4.77 0 0 0 3.232 1.287c1.508 0 2.915-.721 3.86-1.978 1.701-2.258 1.427-5.51-.65-7.425z" fill="#919191" mask="url(#d)"/>
                </g>
                <rect stroke="#919191" stroke-width="3.277" fill="#E2E2E2" x="89.278" y="89.278" width="17.723" height="28.723" rx="2.185"/>
                <circle fill="#919191" cx="94.64" cy="101.64" r="2"/>
                <g stroke-linecap="round" stroke-linejoin="round" stroke="#919191" stroke-width="3.4" fill="#E2E2E2">
                    <path d="m77.89 39.76-8.857.019.032-14.168 8.856-.02zM85.979 43.706l-7.46.085.253-22.38 7.46-.085a3.63 3.63 0 0 1 3.688 3.688l-.17 14.92a3.833 3.833 0 0 1-3.771 3.772z"/>
                    <path d="M26.23 54.525c-1.232 1.418-3.564.368-3.234-1.465C26.18 35.415 41.66 21.83 60.122 21.622l9.325-.107-.253 22.38-14.921.17-9.324.106c-7.227.081-14.894 5.948-18.72 10.354z"/>
                    <path d="m68.898 70.006-14.92.169.296-26.11 14.92-.169z"/>
                    <path d="m64.322 120.713-6.875.077a7.262 7.262 0 0 1-7.367-7.662l2.033-42.933 18.65-.21 1.101 42.897c.115 4.228-3.309 7.783-7.542 7.83z"/>
                </g>
                <path d="M22.65 111.456c-.007.057-.01.113-.01.17-.017 1.094.842 1.996 1.92 2.013h8.027a2.043 2.043 0 0 0 2.052-1.985c.018-1.095-.842-1.998-1.92-2.014h-8.027a2.037 2.037 0 0 0-2.042 1.816M31.65 117.457a2.095 2.095 0 0 0-.01.169c-.018 1.094.879 1.995 2.004 2.013h3.854c1.083.014 2.002-.77 2.131-1.816.006-.056.01-.114.01-.17.018-1.094-.877-1.996-2.003-2.013H33.78c-1.084-.016-2.003.769-2.13 1.817" fill="#F0F0F0"/>
            </g>
        </g>
    </g>
</svg>
