<svg width="144" height="16" viewBox="0 0 144 16" fill="none" xmlns="http://www.w3.org/2000/svg">
<path fill-rule="evenodd" clip-rule="evenodd" d="M139.306 0.204648C141.836 0.204648 143.888 2.26666 143.888 4.81189C143.888 7.35371 141.836 9.4167 139.306 9.4167H134.244V16H128.44V0.204648H139.306ZM122.074 0.196781L126.589 15.9999H120.784L120.043 13.4066H113.847L113.106 15.9999H107.3L111.815 0.196781H122.074ZM91.9527 0.196733L95.792 8.09854L99.6318 0.196733L105.436 0.197703V15.9999H99.6318V8.09854L95.792 15.9999L91.9527 8.09854V15.9999H86.1479V0.196733H91.9527ZM7.95932 0C12.3552 0 15.9182 3.58157 15.9182 8.00039C15.9182 12.4187 12.3552 15.9998 7.95932 15.9998C3.56437 15.9998 0 12.4187 0 8.00039C0 3.58157 3.56437 0 7.95932 0ZM7.95932 0.762936C3.98232 0.762936 0.759067 4.00262 0.759067 8.00039C0.759067 11.9972 3.98232 15.2374 7.95932 15.2374C11.9368 15.2374 15.1601 11.9972 15.1601 8.00039C15.1601 4.00262 11.9368 0.762936 7.95932 0.762936ZM7.95932 3.99679C8.62031 3.99679 9.25664 4.11529 9.84612 4.33043C10.1853 4.47855 10.4883 4.7879 10.6139 5.15795C10.9468 5.08122 11.2913 5.1565 11.5633 5.36241C11.9668 5.70381 12.377 6.16371 12.6534 6.6474C12.9297 7.12818 13.1109 7.63907 13.2037 8.15725C13.2119 8.20095 13.2182 8.25632 13.2182 8.31896C13.2365 8.74293 13.0239 9.16349 12.6306 9.39271C12.4282 9.51072 12.2026 9.55928 11.9832 9.54957L9.39338 9.5418C9.20977 9.54957 8.7237 9.55054 8.35021 9.552V12.003H7.5694V9.552C7.19591 9.55054 6.70983 9.54957 6.52574 9.5418L3.93642 9.54957C3.71609 9.55928 3.4919 9.51072 3.288 9.39271C2.89421 9.16349 2.68403 8.74293 2.70046 8.31896C2.70046 8.25632 2.70771 8.20095 2.71592 8.15725C2.80724 7.63907 2.9894 7.12818 3.26529 6.6474C3.54311 6.16371 3.89438 5.74849 4.29686 5.40806C4.56938 5.207 4.94722 5.10648 5.29607 5.16815C5.39512 4.83258 5.62608 4.55576 5.92758 4.39842C5.98411 4.36539 6.03822 4.34354 6.08267 4.32703C6.66973 4.11432 7.30221 3.99679 7.95932 3.99679ZM116.946 2.56329L114.588 10.8123H119.303L116.946 2.56329ZM7.95932 4.78158C7.39401 4.78158 6.84995 4.88211 6.30542 5.08608C6.14017 5.16475 6.02518 5.33424 6.02518 5.53044C6.02518 5.63339 6.05803 5.73198 6.11215 5.81113L7.739 8.62589C7.77765 8.70845 7.86221 8.76575 7.95932 8.76575C8.05547 8.76575 8.13713 8.71039 8.17723 8.62978L9.80456 5.81453C9.8611 5.73392 9.89588 5.63436 9.89588 5.52704C9.89588 5.32404 9.77267 5.1497 9.59776 5.07637L9.57844 5.06811C9.07352 4.88308 8.52899 4.78158 7.95932 4.78158ZM5.25065 5.97188C5.10763 5.88932 4.93659 5.90583 4.81289 5.99956L4.79937 6.00928C4.46453 6.29192 4.17221 6.63769 3.94077 7.03883C3.71029 7.43948 3.56003 7.86441 3.48078 8.33451C3.46919 8.48263 3.54166 8.6322 3.67889 8.71185C3.75088 8.75361 3.83205 8.7711 3.91033 8.76527L6.54459 8.75652C6.61803 8.76478 6.69244 8.72884 6.73254 8.65988C6.77023 8.59189 6.76588 8.51031 6.72626 8.45057L5.41396 6.15351C5.38159 6.07969 5.32506 6.01607 5.25065 5.97188ZM10.668 5.97188C10.5931 6.01607 10.538 6.07969 10.5042 6.15351L9.19335 8.45057C9.15373 8.51031 9.14793 8.59189 9.18707 8.65988C9.22572 8.72884 9.3011 8.76478 9.37454 8.75652L12.0083 8.76527C12.0866 8.7711 12.1673 8.75361 12.2407 8.71185C12.3775 8.6322 12.449 8.48263 12.4374 8.33451C12.3586 7.86441 12.2074 7.43948 11.9779 7.03883C11.7464 6.63769 11.4546 6.29192 11.1188 6.00928L11.1067 5.99956C10.983 5.90583 10.811 5.88932 10.668 5.97188ZM135.602 2.01316H134.343V6.74181H135.602C137.061 6.74181 138.182 5.58162 138.182 4.14948C138.182 2.71733 136.911 2.01316 135.602 2.01316Z" fill="#D81E05"/>
<path fill-rule="evenodd" clip-rule="evenodd" d="M42.5804 0.220703V9.19965C42.5804 9.71782 42.6021 10.2433 42.6466 10.7751C42.6906 11.3078 42.8176 11.7866 43.0264 12.2106C43.2351 12.635 43.5516 12.9842 43.9758 13.2581C44.3995 13.5306 44.9977 13.667 45.7698 13.667C46.5419 13.667 47.1401 13.5306 47.5638 13.2581C47.9881 12.9842 48.3045 12.635 48.5128 12.2106C48.722 11.7866 48.8486 11.3078 48.8931 10.7751C48.937 10.2433 48.9593 9.71782 48.9593 9.19965V0.220703H51.3326V10.085C51.3326 11.0776 51.1997 11.9406 50.934 12.6749C50.6678 13.4087 50.2914 14.0235 49.8043 14.5203C49.3168 15.0166 48.7312 15.3872 48.048 15.6314C47.3648 15.8762 46.6052 15.9986 45.7698 15.9986C44.9344 15.9986 44.1749 15.8762 43.4912 15.6314C42.8085 15.3872 42.2224 15.0166 41.7353 14.5203C41.2478 14.0235 40.8714 13.4087 40.6057 12.6749C40.3399 11.9406 40.207 11.0776 40.207 10.085V0.220703H42.5804ZM82.0616 0.220848V15.6316H79.3771V0.220848H82.0616ZM76.5817 0.220703V2.55225H72.0592V15.6314H69.5689V2.55225H65.0662V0.220703H76.5817ZM57.8085 0.220703V13.3009H65.1547V15.6314H55.2786V0.220703H57.8085ZM26.1689 0.220703L29.7202 9.44101H29.7559L33.2169 0.220703H36.3537V15.6314H34.2084V3.73914H34.1722L30.6034 12.7866H28.7466L25.1774 3.73914H25.1416V15.6314H22.9968V0.220703H26.1689Z" fill="#737373"/>
</svg>
